<?xml version="1.0" standalone="no"?><!DOCTYPE svg PUBLIC "-//W3C//DTD SVG 1.1//EN" "http://www.w3.org/Graphics/SVG/1.1/DTD/svg11.dtd"><svg t="1627469987802" class="icon" viewBox="0 0 1024 1024" version="1.1" xmlns="http://www.w3.org/2000/svg" p-id="1160" xmlns:xlink="http://www.w3.org/1999/xlink" width="48" height="48"><defs><style type="text/css">@font-face { font-family: feedback-iconfont; src: url("//at.alicdn.com/t/font_1031158_1uhr8ri0pk5.eot?#iefix") format("embedded-opentype"), url("//at.alicdn.com/t/font_1031158_1uhr8ri0pk5.woff2") format("woff2"), url("//at.alicdn.com/t/font_1031158_1uhr8ri0pk5.woff") format("woff"), url("//at.alicdn.com/t/font_1031158_1uhr8ri0pk5.ttf") format("truetype"), url("//at.alicdn.com/t/font_1031158_1uhr8ri0pk5.svg#iconfont") format("svg"); }
</style></defs><path d="M171.64616617 347.13674196c5.68618305-1.53816442 45.00277966 12.28182768 37.84834875 100.35375701 0.09285793 0.09285793 0.1627745 0.30260763 0.18626209 0.65273668 0.48941595 5.19676711-5.24374231 37.59107765-4.56806426 52.01737743 3.19322058 61.36380187 74.04164134 87.14007263 82.80469945 89.37685646 23.42204896-18.29519841 47.70658428-26.87144819 72.9464639-25.77572453a225.67042351 225.67042351 0 0 1-29.62113556-40.57509476 158.46653938 158.46653938 0 0 1-23.58536969-43.30184075 131.07762337 131.07762337 0 0 1-15.89454763-47.72952566c-4.40474353-14.61256189-5.66324169-31.25270413-3.82192343-49.87399777a158.43409538 158.43409538 0 0 1 9.85823553-53.76583775c5.12685054-16.77997538 14.61256189-35.44769798 28.50247054-55.90976365 12.44514841-19.01730542 28.87608718-38.75726409 49.36109423-59.24227114 37.63859905-37.63859905 83.34054436-58.12469855 137.10638211-61.41077705 1.44530647-4.42768492 24.00486907-60.17467406 102.5211705-93.80454138C646.72921894 87.39670647 665.55971604 134.00811333 679.4731123 196.86310443c34.70155715 21.60421829 69.61341021 48.45272512 104.75795433 80.61379835a689.17236327 689.17236327 0 0 1 80.61434457 104.75850054C885.2845355 387.33876628 961.00417437 401.67166192 1001.88187676 446.93116646c-28.15288772 69.45063571-86.81343119 98.88496295-93.75811241 101.44893445-0.02348759 50.45627166-19.38982962 95.03955193-58.14709369 133.79681601l-3.28607851 3.28607851c-2.5639715 2.93649569-5.22080093 5.78013344-7.97048831 8.5298208-15.14840679 15.14840679-32.25447741 28.80562439-51.29527042 40.85476102a268.61546516 268.61546516 0 0 1-55.93325125 28.52595813A218.15500259 218.15500259 0 0 1 678.84386322 773.2312247a284.27124023 284.27124023 0 0 1-49.36109423-4.38180217 384.96119499 384.96119499 0 0 1-46.61140686-15.89400142 1469.97044563 1469.97044563 0 0 1-43.32532833-23.60885727 1210.25390625 1210.25390625 0 0 0-40.57400231-29.62113557c2.53993767 30.36673017-11.6995538 61.43317221-42.76599582 93.24575509-9.64848583 9.32184439-19.8563042 19.34285443-30.55353851 30.04008871s-21.88388454 22.07069287-33.60637971 34.1198295c-12.07262422 11.32648337-21.11534857 20.04256628-27.15111445 26.07833217s-9.06566574 9.39230718-9.04217813 10.11496041A526.9152832 526.9152832 0 0 1 257.75988549 817.09239795l-8.22666697-8.22666696c-29.80739766-29.80739766-55.2340856-62.50540826-76.23254241-98.18634354 0.00054623-0.74559461 20.85862368-21.93031351 62.50540826-63.5770981-13.88990865-8.81003329-103.24327751-68.84432799-81.03275152-157.33575672 5.82601619-26.94081853 37.05577895-75.78955543 19.08667577-129.46198902-13.63372999 6.03576588-17.2688451-14.37932459-2.21384245-13.16780165z" p-id="1161"></path></svg>