<?xml version="1.0" standalone="no"?><!DOCTYPE svg PUBLIC "-//W3C//DTD SVG 1.1//EN" "http://www.w3.org/Graphics/SVG/1.1/DTD/svg11.dtd"><svg t="1627458141366" class="icon" viewBox="0 0 1024 1024" version="1.1" xmlns="http://www.w3.org/2000/svg" p-id="1606" xmlns:xlink="http://www.w3.org/1999/xlink" width="48" height="48"><defs><style type="text/css">@font-face { font-family: feedback-iconfont; src: url("//at.alicdn.com/t/font_1031158_1uhr8ri0pk5.eot?#iefix") format("embedded-opentype"), url("//at.alicdn.com/t/font_1031158_1uhr8ri0pk5.woff2") format("woff2"), url("//at.alicdn.com/t/font_1031158_1uhr8ri0pk5.woff") format("woff"), url("//at.alicdn.com/t/font_1031158_1uhr8ri0pk5.ttf") format("truetype"), url("//at.alicdn.com/t/font_1031158_1uhr8ri0pk5.svg#iconfont") format("svg"); }
</style></defs><path d="M937.660987 1024h-104.442386a128.462428 128.462428 0 0 0 31.230321-86.352692v-1.194602a144.37624 144.37624 0 0 0-3.583807-30.889007 464.444369 464.444369 0 0 0-118.905609-250.695858 364.993715 364.993715 0 0 0-177.867773-105.381003 319.342835 319.342835 0 0 1 97.701416-15.273845 337.773845 337.773845 0 0 1 245.362811 110.074083 445.586716 445.586716 0 0 1 113.828549 240.285752 134.563434 134.563434 0 0 1 3.455814 29.438417v1.237267A99.40799 99.40799 0 0 1 939.111576 1024z m-298.650614 0H82.496286A100.517264 100.517264 0 0 1 0.49536 915.163183v-3.967786a7.466265 7.466265 0 0 0 0-0.938617 134.862084 134.862084 0 0 1 2.602527-22.228138 443.154847 443.154847 0 0 1 115.193808-244.850839A337.645852 337.645852 0 0 1 363.142534 534.042335a337.688516 337.688516 0 0 1 245.490805 109.988755 442.898861 442.898861 0 0 1 113.828549 240.413744 134.222119 134.222119 0 0 1 3.327821 29.481082v1.237267A99.279997 99.279997 0 0 1 640.460962 1024zM128.48848 240.042138a239.987101 239.987101 0 1 1 239.987101 239.9871A239.987101 239.987101 0 0 1 128.48848 240.042138z m482.10742 195.445495a228.979692 228.979692 0 0 0 130.638312-204.788993 230.643603 230.643603 0 0 0-145.826829-211.615292A242.546963 242.546963 0 0 1 690.164957 0.055037a230.046302 230.046302 0 0 1 234.91004 224.286611 230.088966 230.088966 0 0 1-234.91004 224.329276 243.186929 243.186929 0 0 1-79.569057-13.183291z" p-id="1607"></path></svg>